<svg width="1225" height="630" viewBox="0 0 1225 630" fill="none" xmlns="http://www.w3.org/2000/svg">
<g clip-path="url(#clip0_272_63)">
<path d="M79.3711 314.638C87.9852 312.581 93.8914 313.492 93.8914 307.158V185.613C93.8914 179.279 87.9852 180.097 79.3711 178.133C35.2034 169.929 0 139.356 0 90.8081C0 42.2602 43.0005 0 93.728 0C212.645 0 207.322 207.328 318.675 207.328H319.259C311.788 206.252 306.139 199.778 306.139 191.877C306.139 183.416 313.026 176.357 321.57 176.357C330.114 176.357 337.234 183.416 337.234 191.877C337.234 199.427 331.981 205.598 325.001 207.07C374.562 203.868 414.201 162.122 414.201 111.588C414.201 61.0529 371.2 15.9411 318.675 15.9411C285.759 15.9411 259.1 37.1413 259.1 63.367C259.1 67.0601 259.427 70.9168 260.407 74.3761C260.828 75.6851 261.481 76.5032 262.205 76.994C262.532 77.2511 262.952 77.4148 263.349 77.4148C265.146 77.6719 267.364 76.433 269.512 74.5398C270.586 73.558 272.22 73.1373 273.69 73.3009C274.601 73.3944 275.418 73.7217 276.071 74.2125C278.686 76.0123 279.27 79.6353 277.379 82.3467C275.978 84.4036 273.434 85.6424 270.656 85.3152C269.021 85.1516 267.527 84.5672 266.22 83.679C263.839 82.0428 261.551 79.0743 259.987 74.6332C258.75 71.1038 258.586 67.3172 258.586 63.5306C258.586 36.9777 285.503 15.4502 318.652 15.4502C371.434 15.4502 414.667 58.7623 414.667 111.588C414.667 164.413 371.41 207.818 318.652 207.818C206.808 207.818 212.061 0.490854 93.728 0.490854C43.2573 0.490854 0.490233 41.9096 0.490233 90.8081C0.490233 139.707 35.5303 169.789 79.3711 177.993C84.2034 178.905 89.0591 179.559 93.9848 179.957C102.039 180.705 109.649 180.775 114.505 180.775C151.272 180.775 172.282 180.938 182.04 177.97C181.713 185.192 181.456 191.363 181.456 199.006C181.456 205.575 181.62 213.311 182.04 223.83L181.877 223.923C180.406 207.818 174.733 197.791 166.283 191.62C156.688 184.631 143.312 181.756 116.886 181.266V244.375H132.807C143.568 244.375 152.089 234.278 155.941 217.004H156.198C154.237 225.723 153.233 235.166 153.233 244.609C153.233 254.052 154.213 263.519 156.198 272.214H155.941C152.159 254.964 143.638 244.843 132.807 244.843H116.886V311.412C144.222 310.828 157.925 308.373 167.847 302.46C177.861 296.453 184.351 286.192 185.985 268.684L186.149 268.778C185.238 291.451 185.495 301.081 186.149 314.638C178.095 312.183 161.777 311.926 137.639 311.926H116.886C112.38 311.926 103.509 311.926 93.9848 312.838C89.0591 313.259 84.2268 313.82 79.3711 314.801V314.638ZM206.342 314.638C214.956 312.674 220.862 313.563 220.862 307.158V236.568C220.862 230.234 215.119 230.725 202.14 228.668V228.504C208.139 229.252 213.462 229.58 218.154 229.58C230.456 229.58 238.51 227.289 243.833 223.082V247.25C243.996 246.83 244.16 246.432 244.323 245.941C245.724 242.085 247.615 237.971 250.229 234.441C253.264 230.328 257.279 226.962 262.695 225.653C264.096 225.326 265.566 225.162 267.037 225.162C276.398 225.162 283.285 231.005 283.285 238.812C283.285 244.656 278.616 249.331 272.943 249.331C267.271 249.331 262.438 244.656 262.438 238.812C262.438 236.428 262.929 234.138 263.512 232.151C264.002 230.187 264.586 228.528 264.586 227.476C264.679 226.401 264.166 225.91 262.532 226.331C257.279 227.64 253.427 230.935 250.556 234.886C247.941 238.345 246.121 242.365 244.72 246.058C244.393 247.134 244.066 247.952 243.809 248.606V307.205C243.809 313.609 249.646 312.721 258.33 314.684V314.848C249.459 313.212 240.681 312.464 231.974 312.464C223.266 312.464 214.746 313.282 206.295 314.848V314.684L206.342 314.638ZM295.471 314.638C304.085 312.674 309.991 313.563 309.991 307.158V236.568C309.991 230.234 304.155 230.655 291.199 228.668V228.504C297.198 229.252 302.521 229.58 307.213 229.58C319.516 229.58 327.569 227.195 332.892 223.082H332.985V307.135C332.985 313.539 338.891 312.651 347.505 314.614V314.778C338.635 313.212 329.95 312.394 321.243 312.394C312.535 312.394 303.921 313.212 295.471 314.778V314.614V314.638Z" fill="#1E1E1E"/>
<path d="M322.62 324.665C322.62 304.283 330.744 285.631 343.957 271.91V270.671C343.957 243.885 361.512 224.905 390.483 224.905C391.626 224.905 392.864 224.905 394.101 224.998C400.591 225.326 408.224 227.873 411.656 230.842C414.784 233.553 416.909 237.831 416.909 241.687C416.909 245.544 414.364 248.349 410.582 249.331C424.379 251.458 436.938 257.395 447.256 265.856C451.925 263.308 457.761 261.999 464.811 261.999C465.628 261.999 469.807 261.906 470.974 261.906C482.553 261.906 489.697 257.395 489.697 249.985V249.401C489.697 232.151 486.172 225.396 477.067 225.396C467.963 225.396 465.582 228.107 465.488 238.041C465.488 240.004 465.909 242.061 465.909 244.048C465.909 249.962 462.057 254.239 455.404 254.239C449.824 254.239 445.552 250.453 445.552 245.287C445.552 234.675 459.582 224.905 477.067 224.905C498.731 224.905 512.691 235.517 512.691 251.855V278.057C515.399 278.057 516.706 278.875 516.706 280.605C516.706 282.078 515.072 282.989 511.874 283.574C473.472 291.801 483.16 401.005 398.863 401.005C356.937 401.005 322.62 366.645 322.62 324.665ZM434.23 290.235C434.23 281.844 436.775 274.715 441.934 269.689C442.844 268.871 444.642 267.305 446.766 269.362L458.182 280.629C457.598 283.597 457.271 286.799 457.271 290.235C457.271 305.522 464.158 314.965 471.885 314.965C472.468 314.965 473.355 314.638 473.846 314.381C469.34 280.862 442.587 254.146 409.018 249.541C408.761 249.635 408.528 249.635 408.201 249.635C407.221 249.635 406.24 249.471 405.33 249.144C403.205 248.98 401.058 248.887 398.84 248.887C357.147 248.887 323.087 282.989 323.087 324.642C323.087 366.294 357.147 400.49 398.84 400.49C483.137 400.49 472.538 291.614 511.85 283.387C514.885 282.896 516.449 281.914 516.449 280.582C516.449 279.016 515.212 278.291 512.667 278.291C502.583 278.291 497.984 281.423 493.945 282.475C492.381 282.896 489.673 282.896 489.673 278.946V253.234C487.876 259.078 480.966 262.35 470.951 262.35C466.282 262.35 461.193 268.591 458.812 277.707C468.99 290.609 475.06 306.971 475.06 324.618C475.06 333.828 471.605 339.578 467.356 342.453C466.049 343.434 464.555 343.925 462.92 344.089C460.119 344.416 457.575 343.271 456.197 341.214C454.306 338.409 454.89 334.88 457.505 333.08C458.252 332.589 459.069 332.262 459.886 332.168C461.45 331.911 463.014 332.425 464.158 333.407C466.282 335.3 468.43 336.446 470.227 336.282C470.647 336.189 471.044 336.118 471.371 335.861C473.425 334.389 474.569 329.784 474.569 324.595C474.569 321.299 474.313 318.027 473.916 314.825C470.461 316.554 466.282 317.045 462.757 317.045C447.42 317.045 434.207 307.345 434.207 290.165L434.23 290.235ZM344.191 276.187C350.424 270.18 357.24 265.412 364.454 261.883C366.018 261.135 367.068 261.228 366.998 263.028C366.905 265.412 366.905 267.96 366.905 270.671C366.905 305.358 371.9 317.185 388.732 317.185C403.509 317.185 418.286 304.447 418.286 291.638H418.776C418.776 304.704 403.766 317.676 388.732 317.676C363.216 317.676 346.222 301.478 344.167 276.187H344.191ZM367.418 255.244C377.013 250.897 387.681 248.419 398.84 248.419C400.567 248.419 402.295 248.513 403.999 248.583C401.198 247.11 399.4 244.072 399.4 240.285C399.4 237.48 399.727 234.769 399.727 232.385C399.727 227.616 398.163 225.559 394.054 225.396C392.98 225.302 391.93 225.302 390.926 225.302C375.986 225.302 369.169 231.87 367.372 255.221L367.418 255.244Z" fill="#1E1E1E"/>
<path d="M561.854 225.162C558.563 208.566 545.186 214.223 545.186 203.798C545.186 199.357 548.548 195.664 553.474 195.664C558.399 195.664 561.597 199.451 561.924 203.798L563.722 232.642H563.138L561.831 225.162H561.854ZM568.251 203.798C568.577 199.451 571.706 195.664 576.701 195.664C581.697 195.664 584.989 199.357 584.989 203.798C584.989 214.223 571.612 208.566 568.484 225.162L567.013 232.642H566.43L568.227 203.798H568.251Z" fill="#1E1E1E"/>
<path d="M575.067 314.638C583.681 312.581 589.587 313.492 589.587 307.158V185.613C589.587 179.279 583.681 180.097 575.067 178.133V177.97C579.899 178.881 584.755 179.536 589.681 179.933C597.735 180.681 605.345 180.751 610.201 180.751C646.968 180.751 667.978 180.915 677.736 177.946C677.409 185.169 677.152 191.34 677.152 198.983C677.152 205.551 677.316 213.288 677.736 223.806L677.573 223.9C676.102 207.795 670.429 197.768 661.979 191.597C652.384 184.608 639.008 181.733 612.582 181.242V244.352H628.503C639.264 244.352 647.785 234.254 651.637 216.981H651.894C649.933 225.7 648.929 235.143 648.929 244.586C648.929 254.029 649.909 263.495 651.894 272.19H651.637C647.855 254.94 639.334 244.82 628.503 244.82H612.582V311.389C639.918 310.804 653.621 308.35 663.543 302.436C673.557 296.429 680.047 286.168 681.681 268.661L681.845 268.755C680.934 291.427 681.191 301.057 681.845 314.614C673.791 312.16 657.473 311.903 633.335 311.903H612.582C608.076 311.903 599.205 311.903 589.681 312.815C584.755 313.235 579.923 313.796 575.067 314.778V314.614V314.638Z" fill="#1E1E1E"/>
<path d="M707.36 307.906C704.395 304.54 701.361 300.917 701.361 295.261C701.361 289.183 705.703 284.649 711.539 284.649C716.464 284.649 720.48 289.324 720.48 293.928C720.48 297.294 718.519 300.66 714.247 303.301C712.519 304.376 710.885 305.428 710.885 307.251C710.885 312.254 719.102 316.461 728.86 316.461C735.514 316.461 742.984 314.661 748.633 312.02V185.636C748.633 179.302 742.727 180.12 734.113 178.157V177.993C742.727 179.629 751.341 180.377 760.119 180.377C768.896 180.377 777.51 179.629 786.124 177.993V178.157C777.51 180.12 771.604 179.302 771.604 185.636V283.667C771.441 300.754 750.594 316.952 728.837 316.952C720.877 316.952 712.823 314.147 707.337 307.906H707.36Z" fill="#1E1E1E"/>
<path d="M770.063 236.335C778.444 229.019 783.183 222.357 783.183 217.846C783.183 210.132 776.203 208.637 776.203 199.848C776.203 194.261 781.035 190.148 787.128 190.148C792.871 190.148 797.376 194.822 797.376 200.759C797.376 210.132 788.926 221.539 770.624 236.826L770.04 236.335H770.063ZM795.019 236.335C803.399 229.019 808.138 222.357 808.138 217.846C808.138 210.132 801.158 208.637 801.158 199.848C801.158 194.261 805.991 190.148 812.083 190.148C817.826 190.148 822.332 194.822 822.332 200.759C822.332 210.132 813.788 221.539 795.579 236.826L794.995 236.335H795.019Z" fill="#1E1E1E"/>
<path d="M96.3426 393.829C92.6542 384.059 89.8528 382.002 78.5308 380.108V379.945C87.0748 381.254 97.9067 382.002 108.972 382.002C119.477 382.002 130.145 381.347 139.577 379.945V380.108C124.146 382.235 119.874 385.04 119.804 389.224C119.804 390.533 120.224 392.099 120.878 393.829L159.863 497.867L183.838 426.202L171.698 393.829C168.01 384.059 165.209 382.002 153.887 380.108V379.945C162.337 381.254 173.099 382.002 184.164 382.002C194.669 382.002 205.501 381.347 214.932 379.945V380.108C199.502 382.235 195.23 385.04 195.16 389.224C195.16 390.533 195.58 392.099 196.233 393.829L233.164 492.514C234.892 490.621 236.783 488.985 238.744 487.348L265.263 407.97C266.337 404.768 266.827 401.566 266.734 398.691C266.407 389.411 260.011 382.095 245.233 380.108V379.945C252.447 381.09 260.828 382.002 269.932 382.002C277.402 382.002 285.269 381.417 293.323 379.945V380.108C280.017 382.002 271.006 392.263 265.753 407.97L239.234 486.951C248.759 479.565 260.828 475.124 273.947 475.124C275.254 475.124 276.562 475.124 277.799 475.217C282.631 468.228 291.175 463.951 303.641 463.951C304.552 463.951 308.637 463.857 309.804 463.857C321.383 463.857 328.526 459.346 328.526 451.937V451.352C328.526 434.102 325.001 427.347 315.897 427.347C306.793 427.347 304.412 430.059 304.412 439.993C304.412 441.956 304.738 444.013 304.738 446C304.738 451.913 300.957 456.191 294.327 456.191C288.748 456.191 284.405 452.404 284.405 447.239C284.405 436.627 298.435 426.856 315.92 426.856C337.584 426.856 351.544 437.468 351.544 453.807V481.084C351.544 485.034 348.743 485.034 347.272 484.614C343.257 483.538 338.658 480.5 328.55 480.5C326.005 480.5 324.698 481.248 324.768 482.79C324.675 484.099 326.332 485.011 329.274 485.595C373.511 493.823 401.898 516.332 401.898 534.564C401.898 549.85 391.556 560.532 376.616 560.532C336.977 560.532 333.686 475.568 273.947 475.568C243.739 475.474 219.298 499.059 219.298 528.253C219.298 557.447 242.432 580.026 271.006 580.026C299.579 580.026 322.62 558.569 322.62 531.385C322.62 527.598 322.294 523.742 321.22 520.282C320.893 519.044 320.146 518.225 319.492 517.735C319.072 517.477 318.675 517.314 318.255 517.244C316.457 517.08 314.31 518.225 312.185 520.119C311.041 521.194 309.477 521.591 307.913 521.428C307.096 521.264 306.279 521.007 305.532 520.516C302.918 518.716 302.404 515.093 304.225 512.382C305.626 510.325 308.17 509.086 310.948 509.413C312.582 509.577 314.076 510.068 315.454 511.05C317.835 512.686 320.122 515.561 321.687 520.095C322.924 523.555 323.087 527.575 323.087 531.362C323.087 558.803 298.622 580.494 270.982 580.494C243.343 580.494 218.878 557.073 218.784 528.23C218.784 524.279 219.274 520.423 220.092 516.73H217.804L184.071 426.833L153.957 516.73H142.471L96.3426 393.806V393.829ZM273.037 492.187C273.037 489.569 273.294 487.091 273.784 484.707C274.531 481.341 276.328 480.36 279.947 480.85C285.853 481.505 291.362 483.141 296.615 485.362C296.288 487.489 296.124 489.803 296.124 492.187C296.124 498.755 297.432 504.271 299.579 508.385C302.451 514.135 299.579 519.721 292.856 517.922C281.604 514.953 273.083 505.931 273.083 492.21L273.037 492.187ZM324.488 482.814C324.395 481.084 325.795 480.266 328.503 480.266V455.209C326.706 461.053 319.796 464.325 309.781 464.325C305.019 464.325 299.859 470.823 297.548 480.266C335.88 498.755 343.514 560.065 376.593 560.065C391.206 560.065 401.385 549.64 401.385 534.587C401.385 516.519 372.998 494.08 329.25 485.852C326.122 485.268 324.418 484.286 324.488 482.814Z" fill="#1E1E1E"/>
<path d="M381.145 516.192C379.838 515.608 378.53 514.953 377.2 514.299C373.348 512.242 370.476 510.676 367.185 510.676C364.64 510.676 362.259 512.078 360.368 516.262L359.948 516.169C361.349 513.714 362.002 509.18 362.002 504.084C362.002 497.352 360.858 489.452 358.874 483.141H359.131C366.018 503.757 372.344 511.727 381.285 515.678C385.954 517.735 389.899 518.646 394.591 518.553C402.808 518.553 409.532 516.753 415.018 511.891C420.013 507.544 422.394 503.266 422.488 499.48C422.488 494.127 417.819 489.218 403.929 485.665C391.533 482.627 382.172 481.388 373.324 477.695C364.127 473.838 359.855 465.868 359.855 457.243C359.761 451.002 361.979 444.504 366.018 438.917C372.017 430.69 380.631 426.833 393.261 426.833C402.365 426.833 407.291 429.708 411.236 429.708C413.29 429.708 416.068 429.287 417.726 426.833L418.052 426.997C414.597 431.508 414.037 439.315 418.636 458.458H418.379C411.399 436.019 404.583 427.324 393.261 427.324C378.647 427.324 369.216 433.004 369.216 442.19C369.216 444.738 369.963 447.285 371.34 449.576C377.176 459.019 399.82 461.894 405.727 463.39C418.683 466.756 426.083 475.638 426.083 487.956C426.083 490.831 425.663 493.636 424.939 496.02C422.815 503.827 420.34 508.105 415.508 512.288C409.999 516.963 403.766 519.02 394.498 519.02C389.502 519.02 385.464 518.202 381.121 516.145L381.145 516.192Z" fill="#1E1E1E"/>
<path d="M448.19 625.465C464.018 621.842 474.873 623.362 474.873 611.721V388.5C474.873 376.883 464.018 378.379 448.19 374.756V374.452C464.018 377.467 479.845 378.823 495.976 378.823C512.107 378.823 527.935 377.467 543.762 374.452V374.756C527.935 378.379 517.08 376.859 517.08 388.5V497.937H628.619V388.5C628.619 376.883 617.764 378.379 601.937 374.756V374.452C617.764 377.467 633.592 378.823 649.723 378.823C665.854 378.823 681.681 377.467 697.509 374.452V374.756C681.681 378.379 670.826 376.859 670.826 388.5V611.721C670.826 623.338 681.681 621.842 697.509 625.465V625.769C681.681 622.754 665.854 621.398 649.723 621.398C633.592 621.398 617.764 622.754 601.937 625.769V625.465C617.764 621.842 628.619 623.362 628.619 611.721V498.825H517.08V611.721C517.08 623.338 527.935 621.842 543.762 625.465V625.769C527.935 622.754 512.107 621.398 495.976 621.398C479.845 621.398 464.018 622.754 448.19 625.769V625.465Z" fill="#1E1E1E"/>
<path d="M674.001 544.708C674.001 527.341 678.67 511.353 686.817 498.077C624.254 474.376 578.732 422.906 578.732 348.039C578.732 257.769 657.73 181.242 750.874 181.242C969.308 181.242 864.538 479.051 1005.77 479.051C1038.03 479.051 1064.25 452.778 1064.25 420.639C1064.25 392.567 1041.33 369.613 1013.29 369.613C985.252 369.613 962.492 392.567 962.492 420.639C962.492 427.441 963.099 434.523 964.896 440.857C965.643 443.265 966.857 444.784 968.211 445.696C968.818 446.14 969.565 446.444 970.312 446.444C973.627 446.888 977.689 444.644 981.611 441.161C983.572 439.361 986.583 438.59 989.291 438.894C990.949 439.034 992.466 439.642 993.656 440.554C998.489 443.873 999.539 450.511 996.061 455.49C993.493 459.253 988.824 461.52 983.688 460.912C980.677 460.608 977.969 459.557 975.541 457.897C971.176 454.882 966.95 449.436 964.079 441.302C961.815 434.804 961.511 427.861 961.511 420.616C961.511 392.099 984.879 368.702 1013.22 368.702C1041.56 368.702 1065.07 392.099 1065.07 420.616C1065.07 453.363 1038.38 479.939 1005.68 479.939C999.796 479.939 994.38 479.495 989.408 478.419C990.155 480.827 990.622 483.562 990.622 486.11C990.622 496.815 982.031 505.44 971.619 505.44C961.208 505.44 952.313 496.838 952.313 486.11C952.313 481.739 953.224 477.508 954.274 473.885C955.185 470.262 956.235 467.247 956.375 465.283C956.375 463.32 955.465 462.408 952.454 463.18C942.812 465.587 935.716 471.641 930.44 478.887C925.607 485.221 922.292 492.631 919.748 499.409C919.141 501.373 918.534 502.892 918.09 504.084V611.698C918.09 623.479 928.782 621.819 944.773 625.442V625.746C928.502 622.731 912.371 621.375 896.38 621.375C880.389 621.375 864.725 622.894 849.201 625.746V625.442C865.029 621.819 875.884 623.479 875.884 611.698V482.042C875.884 470.426 865.332 471.337 841.521 467.551V467.247C852.516 468.602 862.321 469.21 870.911 469.21C893.532 469.21 908.286 464.979 918.09 457.289V501.653C918.394 500.905 918.697 500.134 919.001 499.246C921.569 492.163 925.024 484.614 929.856 478.116C935.435 470.566 942.812 464.372 952.78 461.964C953.994 461.66 955.348 461.52 956.095 461.356C887.813 396.447 935.132 182.13 750.781 182.13C658.08 182.13 579.526 258.213 579.526 348.016C579.526 422.135 624.744 473.885 686.864 497.586C700.73 475.241 724.542 460.608 753.349 460.608C769.036 460.608 778.514 468.766 778.514 482.346C778.514 495.927 762.243 509.507 736.751 509.507C733.879 509.507 727.413 508.899 724.378 508.455C722.277 508.011 720.013 507.544 717.888 507.099C716.675 517.524 716.091 530.053 716.091 544.685L716.231 564.903C716.231 586.033 717.888 600.969 723.024 611.231C722.721 609.431 722.884 607.608 723.935 605.948C726.643 601.577 739.762 599.754 754.539 594.331C774.592 587.085 787.408 556.606 787.408 516.005C787.408 504.388 786.194 494.571 783.79 486.717C781.385 478.419 789.066 466.943 799.174 473.277C816.519 484.146 827.958 501.957 827.958 524.139C827.958 552.211 808.068 576.216 774.149 589.353C767.659 591.924 760.726 593.279 754.843 595.547C741.42 600.525 727.553 601.881 724.705 606.252C723.351 608.519 723.491 611.09 724.402 613.638C731.031 624.507 742.494 629.042 761.636 629.042C795.696 629.042 827.654 594.471 827.654 557.494H828.565C828.565 594.916 796.162 629.953 761.636 629.953C711.142 629.953 673.908 589.656 673.908 544.685L674.001 544.708ZM736.868 509.25C761.589 509.25 777.72 495.506 777.72 482.393C777.72 469.28 768.523 461.567 753.442 461.567C732.946 461.567 722.091 474.095 718.169 506.842L724.495 508.198C727.366 508.642 733.996 509.25 736.868 509.25ZM1005.05 544.708C1005.05 498.217 1038.36 460.632 1084.49 460.632C1124.29 460.632 1159.1 485.525 1159.1 524.186C1159.1 552.258 1139.21 576.263 1105.29 589.399C1098.8 591.97 1092.03 593.77 1085.98 595.593C1072.26 599.66 1058.69 601.928 1055.85 606.299C1054.49 608.566 1054.8 611.277 1055.71 613.849C1062.34 624.717 1073.8 629.088 1092.8 629.088C1126.86 629.088 1158.82 594.518 1158.82 557.541H1159.73C1159.73 594.962 1127.33 630 1092.8 630C1042.31 630 1005.07 589.703 1005.07 544.732L1005.05 544.708ZM1054.35 611.418C1053.91 609.454 1054.05 607.654 1055.1 605.995C1057.81 601.624 1071.07 599.801 1085.84 594.378C1105.73 587.132 1118.55 556.652 1118.55 516.052C1118.55 478.326 1106.04 461.567 1084.49 461.567C1057.5 461.567 1047.26 483.445 1047.26 544.732L1047.4 564.95C1047.4 586.22 1049.05 601.18 1054.33 611.441L1054.35 611.418Z" fill="#1E1E1E"/>
<path d="M1149.35 611.156C1149.35 602.859 1156.14 596.057 1164.57 596.057C1173 596.057 1179.65 602.859 1179.65 611.156C1179.65 619.454 1172.86 626.56 1164.57 626.56C1156.28 626.56 1149.35 619.758 1149.35 611.156Z" fill="#1E1E1E"/>
<path d="M1032.97 461.427C1032.97 461.427 1028.09 464.863 1035.54 436.884C1042.98 408.905 1071.56 337.357 1096.56 327.704C1121.56 318.05 1194.28 223.058 1225 220.51C1225 220.51 1212.32 223.222 1204.43 236.826C1196.54 250.429 1042.63 349.722 1032.99 461.427H1032.97Z" fill="white"/>
<path d="M588 297.879C588 297.879 599.625 239.116 680.537 197.417C680.537 197.417 748.843 171.145 777.697 186.197C777.697 186.197 651.964 162.66 588 297.879Z" fill="white"/>
</g>
<defs>
<clipPath id="clip0_272_63">
<rect width="1225" height="630" fill="white"/>
</clipPath>
</defs>
</svg>
