<svg width="142" height="106" viewBox="0 0 142 106" fill="none" xmlns="http://www.w3.org/2000/svg">
<path d="M15.9375 60V59.9688C17.5781 59.5781 18.7031 59.75 18.7031 58.5469V35.4375C18.7031 34.2344 17.5781 34.3906 15.9375 34.0156C7.53125 32.4531 0.828125 26.6406 0.828125 17.4062C0.828125 8.0625 9.01562 0.140625 18.6719 0.140625C41.3125 0.140625 40.2969 39.5625 61.5 39.5625C61.5312 39.5625 61.5781 39.5625 61.6094 39.5625C60.1875 39.3594 59.1094 38.125 59.1094 36.625C59.1094 35.0156 60.4219 33.6719 62.0469 33.6719C63.6875 33.6719 65.0312 35.0156 65.0312 36.625C65.0312 38.0625 64.0312 39.2344 62.7031 39.5156C72.1406 38.9062 79.6875 30.9688 79.6875 21.3594C79.6875 11.3594 71.5 3.17188 61.5 3.17188C55.2344 3.17188 50.1562 7.20312 50.1562 12.1875C50.1562 12.8906 50.2188 13.625 50.4062 14.2812C50.4844 14.5312 50.6094 14.6875 50.75 14.7812C50.8125 14.8281 50.8906 14.8594 50.9688 14.8594C51.3125 14.9062 51.7344 14.6719 52.1406 14.3125C52.3438 14.125 52.6562 14.0469 52.9375 14.0781C53.1094 14.0938 53.2656 14.1562 53.3906 14.25C53.8906 14.5938 54 15.2812 53.6406 15.7969C53.375 16.1875 52.8906 16.4219 52.3594 16.3594C52.0469 16.3281 51.7656 16.2188 51.5156 16.0469C51.0625 15.7344 50.625 15.1719 50.3281 14.3281C50.0938 13.6562 50.0625 12.9375 50.0625 12.2188C50.0625 7.17188 55.1875 3.07812 61.5 3.07812C71.5469 3.07812 79.7812 11.3125 79.7812 21.3594C79.7812 31.4219 71.5469 39.6562 61.5 39.6562C40.2031 39.6562 41.2031 0.234375 18.6719 0.234375C9.0625 0.234375 0.921875 8.10938 0.921875 17.4062C0.921875 26.5469 7.59375 32.4219 15.9375 33.9844C16.8594 34.1562 17.7812 34.2812 18.7188 34.3594C20.25 34.5 21.7031 34.5156 22.625 34.5156C29.625 34.5156 33.625 34.5469 35.4844 33.9844C35.4219 35.3594 35.375 36.5312 35.375 37.9844C35.375 39.2344 35.4062 40.7031 35.4844 42.7031L35.4531 42.7188C35.1719 39.6562 34.0938 37.75 32.4844 36.5781C30.6562 35.25 28.1094 34.7031 23.0781 34.6094V46.6094H26.1094C28.1562 46.6094 29.7812 44.6875 30.5156 41.4062H30.5625C30.1875 43.0625 30 44.8594 30 46.6562C30 48.4531 30.1875 50.25 30.5625 51.9062H30.5156C29.7969 48.625 28.1719 46.7031 26.1094 46.7031H23.0781V59.3594C28.2812 59.25 30.8906 58.7812 32.7812 57.6562C34.6875 56.5156 35.9219 54.5625 36.2344 51.2344L36.2656 51.25C36.0938 55.5625 36.1406 57.3906 36.2656 59.9688C34.7344 59.5 31.625 59.4531 27.0312 59.4531H23.0781C22.2188 59.4531 20.5312 59.4531 18.7188 59.625C17.7812 59.7031 16.8594 59.8125 15.9375 60ZM57.0781 60V59.9688C58.7188 59.5938 59.8438 59.7656 59.8438 58.5469V45.125C59.8438 43.9219 58.7344 44 56.2656 43.625V43.5938C57.4062 43.7344 58.4219 43.7969 59.3125 43.7969C61.6562 43.7969 63.1875 43.3438 64.2031 42.5625H64.2188V58.5469C64.2188 59.7656 65.3438 59.5938 66.9844 59.9688V60C65.2969 59.7031 63.6406 59.5469 61.9844 59.5469C60.3281 59.5469 58.6875 59.7031 57.0781 60ZM40.1094 60V59.9688C41.75 59.5938 42.875 59.7656 42.875 58.5469V45.125C42.875 43.9219 41.7812 44.0156 39.3125 43.625V43.5938C40.4531 43.7344 41.4688 43.7969 42.3594 43.7969C44.7031 43.7969 46.2344 43.3594 47.25 42.5625V47.1562C47.2812 47.0781 47.3125 47 47.3438 46.9062C47.6094 46.1719 47.9688 45.3906 48.4688 44.7188C49.0469 43.9375 49.8125 43.2969 50.8438 43.0469C51.1094 42.9844 51.3906 42.9531 51.6719 42.9531C53.4531 42.9531 54.7656 44.0625 54.7656 45.5469C54.7656 46.6562 53.875 47.5469 52.7969 47.5469C51.6875 47.5469 50.7969 46.6562 50.7969 45.5469C50.7969 45.0938 50.8906 44.6562 51 44.2812C51.0938 43.9062 51.2031 43.5938 51.2031 43.3906C51.2188 43.1875 51.125 43.0938 50.8125 43.1719C49.8125 43.4219 49.0781 44.0469 48.5312 44.7969C48.0312 45.4531 47.6875 46.2188 47.4219 46.9219C47.3594 47.125 47.2969 47.2812 47.25 47.4062V58.5469C47.25 59.7656 48.3594 59.5938 50.0156 59.9688V60C48.3281 59.6875 46.6562 59.5469 45 59.5469C43.3438 59.5469 41.7188 59.7031 40.1094 60ZM74.3656 76.3906C66.3812 76.3906 59.85 69.8594 59.85 61.875C59.85 58 61.3969 54.4531 63.9125 51.8438V51.6094C63.9125 46.5156 67.2562 42.9062 72.7719 42.9062C72.9906 42.9062 73.225 42.9062 73.4594 42.9219C74.6937 42.9844 76.1469 43.4688 76.8031 44.0312C77.3969 44.5469 77.8031 45.3594 77.8031 46.0938C77.8031 46.7969 77.3187 47.3594 76.6 47.5469C79.225 47.9531 81.6156 49.0781 83.5844 50.6875C84.475 50.2031 85.5844 49.9531 86.9281 49.9531C87.0844 49.9531 87.8812 49.9375 88.1 49.9375C90.3031 49.9375 91.6625 49.0781 91.6625 47.6719V47.5625C91.6625 44.2812 90.9906 43 89.2562 43C87.5219 43 87.0687 43.5156 87.0531 45.4062C87.0531 45.7812 87.1312 46.1719 87.1312 46.5469C87.1312 47.6719 86.3969 48.4844 85.1312 48.4844C84.0687 48.4844 83.2562 47.7656 83.2562 46.7812C83.2562 44.7656 85.9281 42.9062 89.2562 42.9062C93.3812 42.9062 96.0375 44.9219 96.0375 48.0312V53.0156C96.5531 53.0156 96.8031 53.1719 96.8031 53.5C96.8031 53.7812 96.4906 53.9531 95.8812 54.0625C88.5687 55.625 90.4125 76.3906 74.3656 76.3906ZM72.8656 42.9844C70.0219 42.9844 68.725 44.2344 68.3812 48.6719C70.2094 47.8438 72.2406 47.375 74.3656 47.375C74.6937 47.375 75.0219 47.3906 75.35 47.4062C74.8187 47.125 74.475 46.5469 74.475 45.8281C74.475 45.2969 74.5375 44.7812 74.5375 44.3281C74.5375 43.4219 74.2406 43.0312 73.4594 43C73.2562 42.9844 73.0531 42.9844 72.8656 42.9844ZM72.4437 60.5469C67.5844 60.5469 64.35 57.4688 63.9594 52.6562C65.1469 51.5156 66.4437 50.6094 67.8187 49.9375C68.1156 49.7969 68.3187 49.8125 68.3031 50.1562C68.2875 50.6094 68.2875 51.0938 68.2875 51.6094C68.2875 58.2031 69.2406 60.4531 72.4437 60.4531C75.2562 60.4531 78.0687 58.0312 78.0687 55.5938H78.1625C78.1625 58.0781 75.3031 60.5469 72.4437 60.5469ZM86.5375 60.4375C83.6156 60.4375 81.1 58.5938 81.1 55.3281C81.1 53.7344 81.5844 52.375 82.5687 51.4219C82.7406 51.2656 83.0844 50.9688 83.4906 51.3594L85.6625 53.5C85.5531 54.0625 85.4906 54.6719 85.4906 55.3281C85.4906 58.2344 86.8031 60.0312 88.2719 60.0312C88.3812 60.0312 88.5531 59.9688 88.6469 59.9219C87.7875 53.5469 82.6937 48.4688 76.3031 47.5938C76.2562 47.6094 76.2094 47.6094 76.1469 47.6094C75.9594 47.6094 75.7719 47.5781 75.6 47.5156C75.1937 47.4844 74.7875 47.4688 74.3656 47.4688C66.4281 47.4688 59.9437 53.9531 59.9437 61.875C59.9437 69.7969 66.4281 76.2969 74.3656 76.2969C90.4125 76.2969 88.3969 55.5938 95.8812 54.0312C96.4594 53.9375 96.7562 53.75 96.7562 53.5C96.7562 53.2031 96.5219 53.0625 96.0375 53.0625C94.1156 53.0625 93.2406 53.6562 92.475 53.8594C92.1781 53.9375 91.6625 53.9375 91.6625 53.1875V48.2969C91.3187 49.4062 90.0062 50.0312 88.1 50.0312C87.2094 50.0312 86.2406 51.2188 85.7875 52.9531C87.725 55.4062 88.8812 58.5156 88.8812 61.875C88.8812 63.625 88.225 64.7188 87.4125 65.2656C87.1625 65.4531 86.8812 65.5469 86.5687 65.5781C86.0375 65.6406 85.5531 65.4219 85.2875 65.0312C84.9281 64.5 85.0375 63.8281 85.5375 63.4844C85.6781 63.3906 85.8344 63.3281 85.9906 63.3125C86.2875 63.2656 86.5844 63.3594 86.8031 63.5469C87.2094 63.9062 87.6156 64.125 87.9594 64.0938C88.0375 64.0781 88.1156 64.0625 88.1781 64.0156C88.5687 63.7344 88.7875 62.8594 88.7875 61.875C88.7875 61.25 88.7406 60.625 88.6625 60.0156C88.0062 60.3438 87.2094 60.4375 86.5375 60.4375ZM112.772 60.4062C111.256 60.4062 109.725 59.875 108.678 58.6875C108.116 58.0469 107.537 57.3594 107.537 56.2812C107.537 55.125 108.366 54.2656 109.475 54.2656C110.412 54.2656 111.178 55.1562 111.178 56.0312C111.178 56.6719 110.803 57.3125 109.991 57.8125C109.662 58.0156 109.35 58.2188 109.35 58.5625C109.35 59.5156 110.912 60.3125 112.772 60.3125C114.037 60.3125 115.459 59.9688 116.537 59.4688V35.4375C116.537 34.2344 115.412 34.3906 113.772 34.0156V33.9844C115.412 34.2969 117.053 34.4375 118.725 34.4375C120.397 34.4375 122.037 34.2969 123.678 33.9844V34.0156C122.037 34.3906 120.912 34.2344 120.912 35.4375V54.0781C120.881 57.3281 116.912 60.4062 112.772 60.4062ZM123.566 59.0469C122.691 59.0469 121.988 58.3438 121.988 57.4531C121.988 56.5938 122.691 55.8906 123.566 55.8906C124.425 55.8906 125.128 56.5938 125.128 57.4531C125.128 58.3438 124.425 59.0469 123.566 59.0469ZM15.7812 89V88.9688C17.4219 88.5938 18.5469 88.75 18.5469 87.5469V64.4375C18.5469 63.2344 17.4219 63.3906 15.7812 63.0156V62.9844C17.4219 63.2969 19.0625 63.4375 20.7344 63.4375C22.4062 63.4375 24.0469 63.2969 25.6875 62.9844V63.0156C24.0469 63.3906 22.9219 63.2344 22.9219 64.4375V75.7656H34.4844V64.4375C34.4844 63.2344 33.3594 63.3906 31.7188 63.0156V62.9844C33.3594 63.2969 35 63.4375 36.6719 63.4375C38.3438 63.4375 39.9844 63.2969 41.625 62.9844V63.0156C39.9844 63.3906 38.8594 63.2344 38.8594 64.4375V76.5625C41.4531 76.9688 43.8281 78.0781 45.7812 79.6875C46.6562 79.2031 47.7656 78.9531 49.1094 78.9531C49.2812 78.9531 50.0625 78.9375 50.2812 78.9375C52.4844 78.9375 53.8438 78.0781 53.8438 76.6719V76.5625C53.8438 73.2812 53.1719 72 51.4375 72C49.7031 72 49.25 72.5156 49.25 74.4062C49.25 74.7812 49.3125 75.1719 49.3125 75.5469C49.3125 76.6719 48.5938 77.4844 47.3281 77.4844C46.2656 77.4844 45.4375 76.7656 45.4375 75.7812C45.4375 73.7656 48.1094 71.9062 51.4375 71.9062C55.5625 71.9062 58.2188 73.9219 58.2188 77.0312V82.0156C58.7344 82.0156 58.9844 82.1719 58.9844 82.5C58.9844 82.7812 58.6719 82.9531 58.0781 83.0625C50.7656 84.625 52.6094 105.391 36.5625 105.391C28.5781 105.391 22.0469 98.8594 22.0469 90.875C22.0469 90.0938 22.1094 89.3281 22.2344 88.5781C21.7344 88.5625 21.2344 88.5469 20.7344 88.5469C19.0625 88.5469 17.4219 88.6875 15.7812 89ZM22.9219 75.8594V85.9375C24.7344 81 29.1406 77.2969 34.4844 76.5312V75.8594H22.9219ZM31.7188 89V88.9688C33.3594 88.5938 34.4844 88.75 34.4844 87.5469V78.4062C34.4844 77.875 34.5625 77.3281 35.4688 77.2812C36.6094 77.2031 37.7344 77.2656 38.8594 77.4219V87.5469C38.8594 88.75 39.9844 88.5938 41.625 88.9688V89C39.9844 88.6875 38.3438 88.5469 36.6719 88.5469C35 88.5469 33.3594 88.6875 31.7188 89ZM48.7188 89.4375C45.8125 89.4375 43.2812 87.5938 43.2812 84.3281C43.2812 82.9219 43.6562 81.6875 44.4375 80.7656C44.8594 80.2656 45.3281 80.125 45.8594 80.6406C46.5469 81.2812 47.2031 81.9531 47.8125 82.6719C47.7188 83.1875 47.6719 83.75 47.6719 84.3281C47.6719 87.2344 48.9844 89.0312 50.4688 89.0312C50.5625 89.0312 50.75 88.9688 50.8438 88.9219C49.8906 81.9062 43.8281 76.4688 36.5625 76.4688C28.625 76.4688 22.1406 82.9531 22.1406 90.875C22.1406 98.7969 28.625 105.297 36.5625 105.297C52.6094 105.297 50.5938 84.5938 58.0781 83.0312C58.6406 82.9375 58.9531 82.75 58.9375 82.5C58.9531 82.2031 58.7031 82.0625 58.2188 82.0625C56.2969 82.0625 55.4219 82.6562 54.6562 82.8594C54.375 82.9375 53.8438 82.9375 53.8438 82.1875V77.2969C53.5 78.4062 52.1875 79.0312 50.2812 79.0312C49.3906 79.0312 48.4219 80.2188 47.9688 81.9375C49.9219 84.4062 51.0781 87.5156 51.0781 90.875C51.0781 92.625 50.4062 93.7188 49.6094 94.2656C49.3438 94.4531 49.0625 94.5469 48.75 94.5781C48.2188 94.6406 47.7344 94.4219 47.4688 94.0312C47.125 93.5 47.2188 92.8281 47.7188 92.4844C47.8594 92.3906 48.0156 92.3281 48.1719 92.3125C48.4688 92.2656 48.7656 92.3594 48.9844 92.5469C49.3906 92.9062 49.7969 93.125 50.1406 93.0938C50.2344 93.0781 50.2969 93.0625 50.375 93.0156C50.75 92.7344 50.9844 91.8594 50.9844 90.875C50.9844 90.2344 50.9375 89.625 50.8594 89C50.2031 89.3438 49.4062 89.4375 48.7188 89.4375ZM61.8969 89L56.7562 74.4844C56.2719 73.1094 56.0687 73 54.0687 72.625V72.5938C55.6156 72.9062 57.1625 73.0625 58.6625 73.0625C60.1937 73.0625 61.6781 72.9062 63.0531 72.5938V72.625C61.5687 72.9375 61.225 73.1562 61.225 73.6875C61.225 73.8906 61.2719 74.1562 61.3969 74.4844L65.2875 85.3594L68.4594 76.9844L67.5687 74.4844C67.0844 73.1094 66.8812 73 64.8812 72.625V72.5938C66.4281 72.9062 67.975 73.0625 69.475 73.0625C71.0062 73.0625 72.4906 72.9062 73.8656 72.5938V72.625C72.3812 72.9375 72.0375 73.1562 72.0375 73.6875C72.0375 73.8906 72.0844 74.1562 72.2094 74.4844L76.1 85.3594L79.5219 76.3125C79.725 75.7812 79.8812 75.2969 79.8656 74.875C79.8656 73.6562 78.975 72.8906 76.9594 72.625V72.5938C78.3812 72.7812 79.4594 72.875 80.4125 72.875C81.3187 72.875 82.1156 72.7812 82.9906 72.5938V72.625C81.475 72.9062 80.4906 74 79.6156 76.3125L74.8187 89H72.7094L68.5062 77.1094L64.0062 89H61.8969ZM122.747 72.5469C121.528 72.5469 120.106 73.4531 118.716 75.1094V82.2188C118.716 82.9688 118.184 82.9688 117.903 82.8906C117.138 82.6875 116.263 82.1094 114.341 82.1094C113.856 82.1094 113.606 82.25 113.622 82.5469C113.606 82.7969 113.919 82.9688 114.481 83.0781C119.091 83.9375 122.809 85.6094 125.216 87.5156V76.5C125.216 74.1875 124.169 72.5469 122.747 72.5469ZM104.981 69.3594C103.356 69.3594 102.044 68.0469 102.044 66.3906C102.044 64.7812 103.356 63.4375 104.981 63.4375C106.622 63.4375 107.966 64.7812 107.966 66.3906C107.966 68.0469 106.622 69.3594 104.981 69.3594ZM100.013 89V88.9688C101.653 88.5938 102.778 88.7656 102.778 87.5469V83.375C102.778 82.75 102.95 82.2188 103.794 82.25C104.919 82.2812 106.044 82.4531 107.153 82.7344V87.5469C107.153 88.5 107.856 88.6094 108.966 88.7969L108.95 88.8438C107.591 88.6406 106.247 88.5469 104.919 88.5469C103.263 88.5469 101.622 88.7031 100.013 89ZM82.4969 97.8281C78.5281 97.8281 75.2938 94.5781 75.2938 90.625C75.2938 87.6406 77.1219 84.7656 79.7156 83.9844V64.5156C79.7156 63.3125 78.6063 63.3906 76.1375 63.0156C67.7313 61.4531 61.0281 55.6406 61.0281 46.4062C61.0281 37.0625 69.2156 29.1406 78.8719 29.1406C101.513 29.1406 100.497 68.5625 121.7 68.5625C131.7 68.5625 139.888 60.375 139.888 50.3594C139.888 40.3594 131.7 32.1719 121.7 32.1719C115.434 32.1719 110.356 36.2031 110.356 41.1875C110.356 41.8906 110.419 42.625 110.606 43.2812C110.684 43.5312 110.809 43.6875 110.95 43.7812C111.013 43.8281 111.091 43.8594 111.169 43.8594C111.513 43.9062 111.934 43.6719 112.341 43.3125C112.544 43.125 112.856 43.0469 113.138 43.0781C113.309 43.0938 113.466 43.1562 113.591 43.25C114.091 43.5938 114.2 44.2812 113.841 44.7969C113.575 45.1875 113.091 45.4219 112.559 45.3594C112.247 45.3281 111.966 45.2188 111.716 45.0469C111.263 44.7344 110.825 44.1719 110.528 43.3281C110.294 42.6562 110.263 41.9375 110.263 41.2188C110.263 36.1719 115.388 32.0781 121.7 32.0781C131.747 32.0781 139.981 40.3125 139.981 50.3594C139.981 60.4219 131.747 68.6562 121.7 68.6562C100.403 68.6562 101.403 29.2344 78.8719 29.2344C69.2625 29.2344 61.1219 37.1094 61.1219 46.4062C61.1219 55.5469 67.7938 61.4219 76.1375 62.9844C77.2625 63.1094 78.2625 63.1875 79.1531 63.1875C81.5125 63.1875 83.0594 62.7344 84.075 61.9375L84.0906 61.9531L84.1219 81.4688C84.1219 83.1719 81.2938 83.6406 79.7156 84.0938C77.1688 84.8594 75.3875 87.7031 75.3875 90.625C75.3875 94.5312 78.575 97.7344 82.4969 97.7344C86.4031 97.7344 89.6063 94.5312 89.6063 90.625C89.6063 89.3594 89.2469 88.1562 88.6688 87.1094C88.2781 86.3906 87.7625 85.7969 87.1063 85.3438C86.8875 85.2031 86.7 85.125 86.5438 85.125C86.4656 85.125 86.3875 85.1562 86.3094 85.1875C86.0125 85.3594 85.7938 85.7656 85.6531 86.2969C85.5906 86.5781 85.3875 86.8125 85.1219 86.9531C84.9813 87.0312 84.8094 87.0625 84.6531 87.0625C84.0438 87.0469 83.575 86.5469 83.575 85.9219C83.575 85.4375 83.8406 84.9844 84.325 84.7344C84.5906 84.5938 84.8875 84.5156 85.2 84.5156C85.7469 84.5156 86.3719 84.7656 87.1375 85.2656C87.8094 85.7031 88.3406 86.3438 88.7469 87.0625C89.0281 87.5781 89.2625 88.125 89.4344 88.7031C90.3406 88.4531 90.575 88.2969 90.575 88.0312C90.575 87.9219 90.5125 87.7812 90.3719 87.625L84.6844 81.6875L84.6375 81.6406L88.075 78.5781C89.2156 77.4844 90.9188 75.9688 90.9188 74.4219C90.9188 73.6406 90.075 73 88.5594 72.6406L88.575 72.5938C89.9969 72.9844 91.4969 73.1562 92.9031 73.1406C94.3875 73.1406 95.7625 72.9531 96.7781 72.5938L96.7938 72.6406C94.0906 73.6406 91.3563 75.5312 88.1375 78.6406L87.8875 78.875L94.7469 86.3438C96.3563 83.5156 99.3094 81.5 102.778 81.1406V74.125C102.778 72.9219 101.669 73 99.2 72.625V72.5938C100.341 72.7344 101.356 72.7969 102.247 72.7969C104.591 72.7969 106.122 72.3438 107.138 71.5625H107.153V81.5625C115.591 84.2344 116.856 97.2344 123.497 97.2344C126.278 97.2344 128.216 95.25 128.216 92.3906C128.216 88.9531 122.809 84.6875 114.481 83.125C113.888 83.0156 113.559 82.8281 113.575 82.5469C113.559 82.2188 113.825 82.0625 114.341 82.0625V74.1406C114.341 72.9375 113.231 73 110.763 72.625V72.5938C111.903 72.7344 112.903 72.7969 113.794 72.8125C116.138 72.8125 117.684 72.3594 118.7 71.5625L118.716 71.5781V75.0156C120.294 73.0938 121.856 72.25 123.888 72.25C127.169 72.25 129.591 74.0625 129.591 76.5V87.5469C129.591 88.75 130.716 88.5938 132.356 88.9688V89C130.716 88.6875 129.075 88.5469 127.403 88.5469C127.044 88.5469 126.684 88.5469 126.388 88.5625C127.638 89.8281 128.309 91.1562 128.309 92.3906C128.309 95.2969 126.341 97.3281 123.497 97.3281C115.95 97.3281 115.325 81.1719 103.95 81.1719C98.2 81.1562 93.5438 85.6406 93.5438 91.1875C93.5438 96.625 97.95 101.031 103.388 101.031C108.622 101.031 113.216 96.9531 113.216 91.7812C113.216 91.0625 113.153 90.3281 112.95 89.6719C112.888 89.4375 112.747 89.2812 112.622 89.1875C112.544 89.1406 112.466 89.1094 112.388 89.0938C112.044 89.0625 111.638 89.2812 111.231 89.6406C111.013 89.8438 110.716 89.9219 110.419 89.8906C110.263 89.8594 110.106 89.8125 109.966 89.7188C109.466 89.375 109.372 88.6875 109.716 88.1719C109.981 87.7812 110.466 87.5469 110.997 87.6094C111.309 87.6406 111.591 87.7344 111.856 87.9219C112.309 88.2344 112.747 88.7812 113.044 89.6406C113.278 90.2969 113.309 91.0625 113.309 91.7812C113.309 97 108.653 101.125 103.388 101.125C97.9188 101.125 93.4656 96.6719 93.45 91.1875C93.45 90.2812 93.575 89.3906 93.8094 88.5469H93.2938C91.9969 88.5469 90.7 88.6406 89.4656 88.8125C89.6219 89.3906 89.7 90 89.7 90.625C89.7 94.5781 86.45 97.8281 82.4969 97.8281ZM134.659 89.4375C133.706 89.4375 132.941 89.2812 132.113 88.8906C131.863 88.7812 131.613 88.6562 131.363 88.5312C130.628 88.1406 130.081 87.8438 129.456 87.8438C128.972 87.8438 128.519 88.1094 128.159 88.9062L128.081 88.8906C128.347 88.4219 128.472 87.5625 128.472 86.5938C128.472 85.3125 128.253 83.8125 127.878 82.6094H127.925C129.238 86.5312 130.441 88.0469 132.144 88.7969C133.034 89.1875 133.784 89.3594 134.675 89.3438C136.238 89.3438 137.519 89 138.566 88.0781C139.519 87.25 139.972 86.4375 139.988 85.7188C139.988 84.7031 139.097 83.7656 136.456 83.0938C134.097 82.5156 132.316 82.2812 130.628 81.5781C128.878 80.8438 128.066 79.3281 128.066 77.6875C128.05 76.5 128.472 75.2656 129.238 74.2031C130.378 72.6406 132.019 71.9062 134.425 71.9062C136.159 71.9062 137.097 72.4531 137.847 72.4531C138.238 72.4531 138.769 72.375 139.081 71.9062L139.144 71.9375C138.488 72.7969 138.378 74.2812 139.253 77.9219H139.206C137.878 73.6562 136.581 72 134.425 72C131.644 72 129.847 73.0781 129.847 74.8281C129.847 75.3125 129.988 75.7969 130.253 76.2344C131.363 78.0312 135.675 78.5781 136.8 78.8594C139.269 79.5 140.675 81.1875 140.675 83.5312C140.675 84.0781 140.597 84.6094 140.456 85.0625C140.05 86.5469 139.581 87.3594 138.659 88.1562C137.613 89.0469 136.425 89.4375 134.659 89.4375Z" fill="#363636"/>
</svg>
